<?xml version="1.0" encoding="UTF-8" standalone="no"?>
<!-- Created with Inkscape (http://www.inkscape.org/) -->

<svg
   xmlns:dc="http://purl.org/dc/elements/1.1/"
   xmlns:cc="http://creativecommons.org/ns#"
   xmlns:rdf="http://www.w3.org/1999/02/22-rdf-syntax-ns#"
   xmlns:svg="http://www.w3.org/2000/svg"
   xmlns="http://www.w3.org/2000/svg"
   xmlns:sodipodi="http://sodipodi.sourceforge.net/DTD/sodipodi-0.dtd"
   xmlns:inkscape="http://www.inkscape.org/namespaces/inkscape"
   width="200mm"
   height="43mm"
   viewBox="0 0 200 43"
   version="1.1"
   id="svg8"
   inkscape:version="0.92.4 (5da689c313, 2019-01-14)"
   sodipodi:docname="breaker6.svg"
   inkscape:export-filename="/var/www/udc/site/storage/app/public/images/breaker1.png"
   inkscape:export-xdpi="304.79999"
   inkscape:export-ydpi="304.79999">
  <defs
     id="defs2" />
  <sodipodi:namedview
     id="base"
     pagecolor="#000000"
     bordercolor="#666666"
     borderopacity="1.0"
     inkscape:pageopacity="0"
     inkscape:pageshadow="2"
     inkscape:zoom="1.4"
     inkscape:cx="255.11106"
     inkscape:cy="44.41812"
     inkscape:document-units="mm"
     inkscape:current-layer="layer1"
     showgrid="false"
     inkscape:window-width="1920"
     inkscape:window-height="1022"
     inkscape:window-x="0"
     inkscape:window-y="27"
     inkscape:window-maximized="1" />
  <metadata
     id="metadata5">
    <rdf:RDF>
      <cc:Work
         rdf:about="">
        <dc:format>image/svg+xml</dc:format>
        <dc:type
           rdf:resource="http://purl.org/dc/dcmitype/StillImage" />
        <dc:title />
      </cc:Work>
    </rdf:RDF>
  </metadata>
  <g
     inkscape:label="Layer 1"
     inkscape:groupmode="layer"
     id="layer1"
     transform="translate(0,-254)">
    <path
       style="fill:#018101;fill-opacity:1;fill-rule:evenodd;stroke:none;stroke-width:0.26458332px;stroke-linecap:butt;stroke-linejoin:miter;stroke-opacity:1"
       d="m 205.14657,289.34598 c 0,0 -16.72545,-16.06399 -38.27009,-1.41741 -21.54464,14.64658 -31.56101,-9.4494 -31.56101,-9.4494 0,0 -9.16592,-24.00149 -21.07217,-14.93006 -11.90625,9.07143 -11.90625,8.03199 -17.29241,7.46503 -5.38616,-0.56697 -13.04018,-6.61459 -18.42634,0 -5.38616,6.61458 -6.52009,15.9695 -15.11905,17.10342 -12.50239,1.64866 -18.23735,-1.41741 -21.26116,-6.89807 -3.02381,-5.48065 -16.25298,-21.63913 -31.18303,-6.3311 l -14.93006,15.30804 6.2366,14.93006 204.48512,1.5119 z"
       id="path845"
       inkscape:connector-curvature="0"
       sodipodi:nodetypes="cscscsssscccc" />
    <path
       style="opacity:0.49500002;fill:#018101;fill-opacity:1;fill-rule:evenodd;stroke:none;stroke-width:0.26458332px;stroke-linecap:butt;stroke-linejoin:miter;stroke-opacity:1"
       d="m 176.42038,290.19643 c 0,0 0.47247,-14.3631 -8.88244,-12.09524 -9.35491,2.26786 -14.36309,4.25223 -18.52083,0.94494 -4.15774,-3.30729 -2.92932,-14.07961 -10.20536,-12.18973 -7.27604,1.88988 -9.73289,7.18155 -9.73289,7.18155 0,0 -6.99256,14.36309 8.69345,19.46577 15.68602,5.10268 38.55358,-2.92932 38.55358,-2.92932"
       id="path847"
       inkscape:connector-curvature="0" />
    <path
       style="opacity:0.50199998;fill:#018101;fill-opacity:1;fill-rule:evenodd;stroke:none;stroke-width:0.26458332px;stroke-linecap:butt;stroke-linejoin:miter;stroke-opacity:1"
       d="m 80.31994,279.99107 c 0,0 -7.9375,-1.13393 -15.30804,-10.11086 -7.37054,-8.97694 -12.18973,-7.18155 -14.2686,-6.14211 -2.07887,1.03943 -12.28423,10.9613 -13.70164,21.16666 -1.41741,10.20536 24.19048,8.59896 24.19048,8.59896 z"
       id="path849"
       inkscape:connector-curvature="0" />
    <circle
       style="opacity:0.50199998;fill:#018101;fill-opacity:1;fill-rule:nonzero;stroke:none;stroke-width:13;stroke-linecap:round;stroke-linejoin:round;stroke-miterlimit:4;stroke-dasharray:none;stroke-opacity:1"
       id="path851"
       cx="-155.86792"
       cy="272.10083"
       r="2.3151042"
       transform="scale(-1,1)" />
    <circle
       style="opacity:0.50199998;fill:#018101;fill-opacity:1;fill-rule:nonzero;stroke:none;stroke-width:13;stroke-linecap:round;stroke-linejoin:round;stroke-miterlimit:4;stroke-dasharray:none;stroke-opacity:1"
       id="path853"
       cx="-100.82513"
       cy="267.04538"
       r="2.2678571"
       transform="scale(-1,1)" />
    <circle
       style="opacity:0.50199998;fill:#018101;fill-opacity:1;fill-rule:nonzero;stroke:none;stroke-width:13;stroke-linecap:round;stroke-linejoin:round;stroke-miterlimit:4;stroke-dasharray:none;stroke-opacity:1"
       id="path855"
       cx="-66.901787"
       cy="263.36011"
       r="2.2678571"
       transform="scale(-1,1)" />
    <circle
       style="opacity:0.50199998;fill:#2f3136;fill-opacity:1;fill-rule:nonzero;stroke:none;stroke-width:13;stroke-linecap:round;stroke-linejoin:round;stroke-miterlimit:4;stroke-dasharray:none;stroke-opacity:1"
       id="path857"
       cx="-37.277905"
       cy="269.26599"
       r="1.0866816"
       transform="scale(-1,1)" />
    <circle
       style="opacity:0.50199998;fill:#2f3136;fill-opacity:1;fill-rule:nonzero;stroke:none;stroke-width:13;stroke-linecap:round;stroke-linejoin:round;stroke-miterlimit:4;stroke-dasharray:none;stroke-opacity:1"
       id="path859"
       cx="-178.12128"
       cy="279.04614"
       r="1.0394346"
       transform="scale(-1,1)" />
  </g>
</svg>
