<?xml version="1.0" encoding="UTF-8" standalone="no"?>
<!-- Created with Inkscape (http://www.inkscape.org/) -->

<svg
   xmlns:dc="http://purl.org/dc/elements/1.1/"
   xmlns:cc="http://creativecommons.org/ns#"
   xmlns:rdf="http://www.w3.org/1999/02/22-rdf-syntax-ns#"
   xmlns:svg="http://www.w3.org/2000/svg"
   xmlns="http://www.w3.org/2000/svg"
   xmlns:sodipodi="http://sodipodi.sourceforge.net/DTD/sodipodi-0.dtd"
   xmlns:inkscape="http://www.inkscape.org/namespaces/inkscape"
   width="200mm"
   height="43mm"
   viewBox="0 0 200 43"
   version="1.1"
   id="svg8"
   inkscape:version="0.92.3 (2405546, 2018-03-11)"
   sodipodi:docname="breaker1.svg"
   inkscape:export-filename="/var/www/udc/site/storage/app/public/images/breaker1.png"
   inkscape:export-xdpi="304.79999"
   inkscape:export-ydpi="304.79999">
  <defs
     id="defs2" />
  <sodipodi:namedview
     id="base"
     pagecolor="#000000"
     bordercolor="#666666"
     borderopacity="1.0"
     inkscape:pageopacity="0"
     inkscape:pageshadow="2"
     inkscape:zoom="1.979899"
     inkscape:cx="570.30093"
     inkscape:cy="68.864551"
     inkscape:document-units="mm"
     inkscape:current-layer="layer1"
     showgrid="false"
     inkscape:window-width="1920"
     inkscape:window-height="1050"
     inkscape:window-x="1920"
     inkscape:window-y="0"
     inkscape:window-maximized="1" />
  <metadata
     id="metadata5">
    <rdf:RDF>
      <cc:Work
         rdf:about="">
        <dc:format>image/svg+xml</dc:format>
        <dc:type
           rdf:resource="http://purl.org/dc/dcmitype/StillImage" />
        <dc:title />
      </cc:Work>
    </rdf:RDF>
  </metadata>
  <g
     inkscape:label="Layer 1"
     inkscape:groupmode="layer"
     id="layer1"
     transform="translate(0,-254)">
    <path
       style="fill:#f4f4ff;fill-opacity:1;fill-rule:evenodd;stroke:none;stroke-width:0.26458329px;stroke-linecap:butt;stroke-linejoin:miter;stroke-opacity:1"
       d="m -1.8513101,256.03749 c 0,0 32.6130441,-10.81746 41.1802951,24.51041 1.206351,4.51997 7.395332,15.6823 16.845721,8.08595 13.302024,-11.7097 22.871345,-5.98727 26.671307,2.24385 3.134164,5.54341 10.91842,5.55468 16.935042,-8.5971 6.834545,-16.07562 26.929095,-10.42027 27.602925,-10.13149 6.26223,2.59631 13.49403,9.56965 16.26815,10.97378 4.89426,2.47726 15.52212,6.28104 25.24451,-9.40954 9.72238,-15.69059 32.99559,3.06568 32.99559,3.06568 l 0.051,20.64863 -203.8170996,-0.0288 z"
       id="path4581"
       inkscape:connector-curvature="0"
       sodipodi:nodetypes="ccccscsscccc" />
    <path
       style="opacity:0.49500002;fill:#2f3136;fill-opacity:1;fill-rule:evenodd;stroke:none;stroke-width:0.26458332px;stroke-linecap:butt;stroke-linejoin:miter;stroke-opacity:1"
       d="m 44.493924,265.3936 c 0,0 -3.261073,13.99597 -11.710258,9.38416 -8.449184,-4.61181 -12.773126,-7.82478 -17.645183,-5.70629 -4.872054,2.1185 -6.4735699,12.8417 -13.0125499,9.13304 -6.538979,-3.70866 -7.542526,-9.4559 -7.542526,-9.4559 0,0 -3.036852,-15.68349 13.435341,-16.55246 16.4721959,-0.86898 36.4817279,12.8079 36.4817279,12.8079"
       id="path847"
       inkscape:connector-curvature="0" />
    <path
       style="opacity:0.50199998;fill:#2f3136;fill-opacity:1;fill-rule:evenodd;stroke:none;stroke-width:0.26458332px;stroke-linecap:butt;stroke-linejoin:miter;stroke-opacity:1"
       d="m 139.43706,265.31348 c 0,0 -7.08623,3.75167 -10.98631,14.69239 -3.90008,10.94074 -9.0425,10.88106 -11.35042,10.60597 -2.3079,-0.27508 -15.26756,-6.16067 -20.05302,-15.28524 -4.785461,-9.12457 19.85666,-16.27375 19.85666,-16.27375 z"
       id="path849"
       inkscape:connector-curvature="0" />
    <circle
       style="opacity:0.50199998;fill:#2f3136;fill-opacity:1;fill-rule:nonzero;stroke:none;stroke-width:13;stroke-linecap:round;stroke-linejoin:round;stroke-miterlimit:4;stroke-dasharray:none;stroke-opacity:1"
       id="path853"
       cx="103.093"
       cy="289.72397"
       r="2.2678571" />
    <circle
       style="opacity:0.50199998;fill:#2f3136;fill-opacity:1;fill-rule:nonzero;stroke:none;stroke-width:13;stroke-linecap:round;stroke-linejoin:round;stroke-miterlimit:4;stroke-dasharray:none;stroke-opacity:1"
       id="path853-3"
       cx="17.764881"
       cy="275.54987"
       r="2.2678571" />
    <circle
       style="opacity:0.50199998;fill:#2f3136;fill-opacity:1;fill-rule:nonzero;stroke:none;stroke-width:13;stroke-linecap:round;stroke-linejoin:round;stroke-miterlimit:4;stroke-dasharray:none;stroke-opacity:1"
       id="path859"
       cx="1.9843749"
       cy="283.01489"
       r="1.0394346" />
    <circle
       style="opacity:0.50199998;fill:#2f3136;fill-opacity:1;fill-rule:nonzero;stroke:none;stroke-width:13;stroke-linecap:round;stroke-linejoin:round;stroke-miterlimit:4;stroke-dasharray:none;stroke-opacity:1"
       id="path859-6"
       cx="133.04761"
       cy="280.55801"
       r="1.0394346"
       inkscape:transform-center-x="-5.8586309"
       inkscape:transform-center-y="1.7008928" />
    <path
       style="opacity:0.50199998;fill:#2f3136;fill-opacity:1;fill-rule:evenodd;stroke:none;stroke-width:0.26458332px;stroke-linecap:butt;stroke-linejoin:miter;stroke-opacity:1"
       d="m 180.92232,265.87119 c 0,0 10.51729,-13.32324 11.34537,-1.73773 0.8281,11.58554 -3.90433,13.59855 -6.12808,14.27464 -2.22373,0.67609 -16.45613,0.498 -24.50651,-5.93238 -8.05038,-6.43038 9.93666,-3.65471 9.93666,-3.65471 z"
       id="path849-7"
       inkscape:connector-curvature="0"
       sodipodi:nodetypes="cccscc" />
    <circle
       style="opacity:0.50199998;fill:#2f3136;fill-opacity:1;fill-rule:nonzero;stroke:none;stroke-width:13;stroke-linecap:round;stroke-linejoin:round;stroke-miterlimit:4;stroke-dasharray:none;stroke-opacity:1"
       id="path853-5"
       cx="194.97311"
       cy="277.62299"
       r="2.2678571" />
    <circle
       style="opacity:0.50199998;fill:#2f3136;fill-opacity:1;fill-rule:nonzero;stroke:none;stroke-width:13;stroke-linecap:round;stroke-linejoin:round;stroke-miterlimit:4;stroke-dasharray:none;stroke-opacity:1"
       id="path859-6-3"
       cx="169.84979"
       cy="280.83017"
       r="1.0394346"
       inkscape:transform-center-x="-5.8586309"
       inkscape:transform-center-y="1.7008928" />
  </g>
</svg>
