<?xml version="1.0" encoding="UTF-8" standalone="no"?>
<!DOCTYPE svg PUBLIC "-//W3C//DTD SVG 1.1//EN" "http://www.w3.org/Graphics/SVG/1.1/DTD/svg11.dtd">
<svg width="100%" height="100%" viewBox="0 0 357 332" version="1.1" xmlns="http://www.w3.org/2000/svg" xmlns:xlink="http://www.w3.org/1999/xlink" xml:space="preserve" xmlns:serif="http://www.serif.com/" style="fill-rule:evenodd;clip-rule:evenodd;stroke-linecap:round;stroke-linejoin:round;stroke-miterlimit:1.5;">
    <g transform="matrix(1,0,0,1,-643.331,-252.117)">
        <g id="Experience-Overlay" serif:id="Experience Overlay">
            <path d="M944.882,375.025C944.882,363.603 935.609,354.331 924.188,354.331L753.608,354.331C742.187,354.331 732.914,363.603 732.914,375.025L732.914,416.413C732.914,427.835 742.187,437.107 753.608,437.107L924.188,437.107C935.609,437.107 944.882,427.835 944.882,416.413L944.882,375.025Z" style="fill:rgb(39,39,39);stroke:rgb(225,52,97);stroke-width:2.08px;stroke-dasharray:0,0.1,0,0;"/>
            <g transform="matrix(1,0,0,0.872057,0,53.3097)">
                <path d="M767.147,403.183L767.147,386.57" style="fill:none;stroke:white;stroke-width:4.44px;stroke-linecap:square;stroke-linejoin:miter;"/>
            </g>
            <g transform="matrix(0.765535,0,0,0.677629,179.742,129.455)">
                <path d="M778.932,399.878L767.283,411.373L756.741,400.831" style="fill:none;stroke:white;stroke-width:5.76px;stroke-linecap:square;stroke-linejoin:miter;"/>
            </g>
            <g transform="matrix(1,0,0,1,136.414,18.5254)">
                <text x="658.502px" y="371.383px" style="font-family:'Poppins-Regular', 'Poppins';font-size:19.082px;fill:white;">Skip to</text>
                <g transform="matrix(19.0817,0,0,19.0817,761.428,392.373)">
                </g>
                <text x="658.502px" y="392.373px" style="font-family:'Poppins-Regular', 'Poppins';font-size:19.082px;fill:white;">Experience</text>
            </g>
            <g transform="matrix(1,0,0,0.133099,0,364.749)">
                <path d="M756.31,409.244L756.31,460.568L780.195,460.386L780.195,409.425" style="fill:none;stroke:rgb(233,233,233);stroke-width:2.92px;"/>
            </g>
            <g transform="matrix(1,0,0,0.614366,0,170.427)">
                <path d="M767.717,416.075L767.717,441.94" style="fill:none;stroke:rgb(233,233,233);stroke-width:2.51px;"/>
            </g>
            <g transform="matrix(1,0,0,1,-0.128157,-25.5038)">
                <g transform="matrix(12.9576,0,0,12.9576,785.122,482.03)">
                </g>
                <text x="752.857px" y="482.03px" style="font-family:'Poppins-Bold', 'Poppins';font-weight:700;font-size:12.958px;fill:rgb(233,233,233);">20px</text>
            </g>
            <g transform="matrix(5.37867,0,0,0.133099,-3273.55,364.749)">
                <path d="M756.31,409.244L756.31,460.568L780.195,460.386L780.195,409.425" style="fill:none;stroke:rgb(39,39,39);stroke-width:0.55px;"/>
            </g>
            <g transform="matrix(1,0,0,0.588358,85.8188,181.249)">
                <path d="M767.717,416.075L767.717,441.94" style="fill:none;stroke:rgb(39,39,39);stroke-width:2.54px;"/>
            </g>
            <g transform="matrix(1,0,0,1,81.6907,-27.0113)">
                <g transform="matrix(12.9576,0,0,12.9576,790.991,482.03)">
                </g>
                <text x="752.857px" y="482.03px" style="font-family:'Poppins-Bold', 'Poppins';font-weight:700;font-size:12.958px;fill:rgb(39,39,39);">180px</text>
            </g>
            <g transform="matrix(5.37867,0,0,0.133099,-3273.55,364.749)">
                <path d="M756.31,409.244L756.31,460.568L780.195,460.386L780.195,409.425" style="fill:none;stroke:rgb(233,233,233);stroke-width:0.55px;"/>
            </g>
            <g transform="matrix(1,0,0,0.588358,85.8188,181.249)">
                <path d="M767.717,416.075L767.717,441.94" style="fill:none;stroke:rgb(233,233,233);stroke-width:2.54px;"/>
            </g>
            <g transform="matrix(1,0,0,1,81.6907,-27.0113)">
                <g transform="matrix(12.9576,0,0,12.9576,790.991,482.03)">
                </g>
                <text x="752.857px" y="482.03px" style="font-family:'Poppins-Bold', 'Poppins';font-weight:700;font-size:12.958px;fill:rgb(233,233,233);">180px</text>
            </g>
            <g transform="matrix(-8.876,1.087e-15,-1.63e-17,-0.133099,7657.89,408.801)">
                <path d="M756.31,409.244L756.31,460.568L780.195,460.386L780.195,409.425" style="fill:none;stroke:rgb(233,233,233);stroke-width:0.33px;"/>
            </g>
            <g transform="matrix(1,0,0,0.588358,13.4562,87.4806)">
                <path d="M767.717,416.075L767.717,441.94" style="fill:none;stroke:rgb(233,233,233);stroke-width:2.54px;"/>
            </g>
            <g transform="matrix(1,0,0,0.509935,69.6786,120.11)">
                <path d="M767.717,416.075L767.717,441.94" style="fill:none;stroke:rgb(233,233,233);stroke-width:2.62px;"/>
            </g>
            <g transform="matrix(1,0,0,1,9.09926,-158.487)">
                <g transform="matrix(12.9576,0,0,12.9576,793.544,482.03)">
                </g>
                <text x="752.857px" y="482.03px" style="font-family:'Poppins-Bold', 'Poppins';font-weight:700;font-size:12.958px;fill:rgb(233,233,233);">250px</text>
            </g>
            <g transform="matrix(-6.36648e-16,-3.46575,0.133099,-2.44499e-17,890.412,3058.29)">
                <path d="M756.31,409.244L756.31,460.568L780.195,460.386L780.195,409.425" style="fill:none;stroke:rgb(233,233,233);stroke-width:0.85px;"/>
            </g>
            <g transform="matrix(4.06836e-17,-1,0.390913,3.60265e-17,789.064,1166.55)">
                <path d="M767.717,416.075L767.717,441.94" style="fill:none;stroke:rgb(233,233,233);stroke-width:2.74px;"/>
            </g>
            <g transform="matrix(1,0,0,1,211.934,-78.8484)">
                <g transform="matrix(12.9576,0,0,12.9576,786.119,482.03)">
                </g>
                <text x="752.857px" y="482.03px" style="font-family:'Poppins-Bold', 'Poppins';font-weight:700;font-size:12.958px;fill:rgb(233,233,233);">80px</text>
            </g>
            <g transform="matrix(1,0,0,1,-8.78741,-11.1919)">
                <circle cx="741.701" cy="400.435" r="3.59" style="fill:rgb(39,39,39);"/>
            </g>
            <g transform="matrix(1,0,0,1,13.7621,-1.12566)">
                <circle cx="741.701" cy="400.435" r="3.59" style="fill:white;"/>
            </g>
            <path d="M738.111,389.243L708.882,389.243L708.882,507.058" style="fill:none;stroke:rgb(39,39,39);stroke-width:2.08px;stroke-linejoin:miter;"/>
            <g transform="matrix(1,0,0,0.928051,19.1416,37.9713)">
                <path d="M738.111,389.243L708.882,389.243L708.882,504.784" style="fill:none;stroke:white;stroke-width:2.16px;stroke-linejoin:miter;"/>
            </g>
            <g transform="matrix(1,0,0,1,164.968,4.94524)">
                <circle cx="741.701" cy="400.435" r="3.59" style="fill:white;"/>
            </g>
            <g transform="matrix(1,0,0,1,230.104,86.6874)">
                <path d="M680.156,318.693L705.25,318.693L705.37,394.516" style="fill:none;stroke:white;stroke-width:2.08px;stroke-linejoin:miter;"/>
            </g>
            <g transform="matrix(0.929461,0,0,0.929461,51.3538,18.4367)">
                <path d="M718.453,510.433C720.783,507.767 724.208,506.081 728.024,506.081C735.037,506.081 740.731,511.775 740.731,518.789C740.731,525.802 735.037,531.496 728.024,531.496C724.208,531.496 720.783,529.811 718.453,527.144C716.5,524.91 715.316,521.986 715.316,518.789C715.316,515.591 716.5,512.667 718.453,510.433Z" style="fill:white;"/>
            </g>
            <g transform="matrix(0.923176,0,0,0.923176,60.1621,22.8949)">
                <circle cx="702.705" cy="517.492" r="12.707" style="fill:rgb(39,39,39);stroke:rgb(149,106,32);stroke-opacity:0;stroke-width:2.26px;"/>
            </g>
            <g transform="matrix(0.512089,0,0,0.512089,340.506,246.896)">
                <g transform="matrix(19.8067,0,0,19.8067,779.303,546.153)">
                </g>
                <text x="696.055px" y="546.153px" style="font-family:'Poppins-Regular', 'Poppins';font-size:19.807px;fill:rgb(233,233,233);">#272727</text>
            </g>
            <g transform="matrix(0.512089,0,0,0.512089,393.101,217.104)">
                <g transform="matrix(19.8067,0,0,19.8067,900.659,546.153)">
                </g>
                <text x="696.055px" y="546.153px" style="font-family:'Poppins-Regular', 'Poppins';font-size:19.807px;fill:rgb(233,233,233);">Contrast Ratio 14.93:1</text>
            </g>
            <g transform="matrix(0.512089,0,0,0.512089,517.5,216.51)">
                <g transform="matrix(19.8067,0,0,19.8067,908.244,546.153)">
                </g>
                <text x="696.055px" y="546.153px" style="font-family:'Poppins-Regular', 'Poppins';font-size:19.807px;fill:rgb(233,233,233);">Font: Poppins Regular</text>
            </g>
            <g transform="matrix(0.512089,0,0,0.512089,340.506,258.762)">
                <g transform="matrix(19.8067,0,0,19.8067,772.588,546.153)">
                </g>
                <text x="696.055px" y="546.153px" style="font-family:'Poppins-Regular', 'Poppins';font-size:19.807px;fill:rgb(233,233,233);">#FFFFFF</text>
            </g>
            <g transform="matrix(1,0,0,1,0,-0.620649)">
                <path d="M762.983,510.367C762.983,508.54 761.5,507.058 759.674,507.058L753.055,507.058C751.229,507.058 749.746,508.54 749.746,510.367L749.746,516.985C749.746,518.812 751.229,520.294 753.055,520.294L759.674,520.294C761.5,520.294 762.983,518.812 762.983,516.985L762.983,510.367Z" style="fill:rgb(119,215,128);stroke:rgb(51,174,63);stroke-width:2.08px;"/>
            </g>
            <g transform="matrix(0.711846,0,0,0.711846,217.693,146.452)">
                <path d="M752.311,515.99L754.596,518.275L761.138,511.732" style="fill:none;stroke:rgb(51,174,63);stroke-width:2.93px;"/>
            </g>
            <g transform="matrix(1,0,0,1,0,0.379351)">
                <g transform="matrix(9.29271,0,0,9.29271,856.669,516.005)">
                </g>
                <text x="769.011px" y="516.005px" style="font-family:'Poppins-Regular', 'Poppins';font-size:9.293px;fill:rgb(233,233,233);">Contrast WCAG AA</text>
            </g>
            <g transform="matrix(1,0,0,1,124.977,-4.12018)">
                <path d="M762.983,510.367C762.983,508.54 761.5,507.058 759.674,507.058L753.055,507.058C751.229,507.058 749.746,508.54 749.746,510.367L749.746,516.985C749.746,518.812 751.229,520.294 753.055,520.294L759.674,520.294C761.5,520.294 762.983,518.812 762.983,516.985L762.983,510.367Z" style="fill:rgb(119,215,128);stroke:rgb(51,174,63);stroke-width:2.08px;"/>
            </g>
            <g transform="matrix(0.711846,0,0,0.711846,342.67,142.953)">
                <path d="M752.311,515.99L754.596,518.275L761.138,511.732" style="fill:none;stroke:rgb(51,174,63);stroke-width:2.93px;"/>
            </g>
            <g transform="matrix(1,0,0,1,124.977,-3.12018)">
                <g transform="matrix(9.29271,0,0,9.29271,823.002,516.005)">
                </g>
                <text x="769.011px" y="516.005px" style="font-family:'Poppins-Regular', 'Poppins';font-size:9.293px;fill:rgb(233,233,233);">Free for Use</text>
            </g>
            <g transform="matrix(0.512089,0,0,0.512089,473.554,23.3153)">
                <g transform="matrix(19.8067,0,0,19.8067,914.048,546.153)">
                </g>
                <text x="696.055px" y="546.153px" style="font-family:'Poppins-Regular', 'Poppins';font-size:19.807px;fill:rgb(233,233,233);">Using Reactive Design</text>
            </g>
            <g transform="matrix(1,0,0,1,81.0307,-197.315)">
                <path d="M762.983,510.367C762.983,508.54 761.5,507.058 759.674,507.058L753.055,507.058C751.229,507.058 749.746,508.54 749.746,510.367L749.746,516.985C749.746,518.812 751.229,520.294 753.055,520.294L759.674,520.294C761.5,520.294 762.983,518.812 762.983,516.985L762.983,510.367Z" style="fill:rgb(119,215,128);stroke:rgb(51,174,63);stroke-width:2.08px;"/>
            </g>
            <g transform="matrix(0.711846,0,0,0.711846,298.724,-50.2418)">
                <path d="M752.311,515.99L754.596,518.275L761.138,511.732" style="fill:none;stroke:rgb(51,174,63);stroke-width:2.93px;"/>
            </g>
            <g transform="matrix(1,0,0,1,81.0307,-196.315)">
                <g transform="matrix(9.29271,0,0,9.29271,851.967,516.005)">
                </g>
                <text x="769.011px" y="516.005px" style="font-family:'Poppins-Regular', 'Poppins';font-size:9.293px;fill:rgb(233,233,233);">Resizes for mobile</text>
            </g>
            <g transform="matrix(1,0,0,1,0,19.6635)">
                <path d="M762.983,510.367C762.983,508.54 761.5,507.058 759.674,507.058L753.055,507.058C751.229,507.058 749.746,508.54 749.746,510.367L749.746,516.985C749.746,518.812 751.229,520.294 753.055,520.294L759.674,520.294C761.5,520.294 762.983,518.812 762.983,516.985L762.983,510.367Z" style="fill:rgb(119,215,128);stroke:rgb(51,174,63);stroke-width:2.08px;"/>
            </g>
            <g transform="matrix(0.711846,0,0,0.711846,217.693,166.736)">
                <path d="M752.311,515.99L754.596,518.275L761.138,511.732" style="fill:none;stroke:rgb(51,174,63);stroke-width:2.93px;"/>
            </g>
            <g transform="matrix(1,0,0,1,0,20.6635)">
                <g transform="matrix(9.29271,0,0,9.29271,862.932,516.005)">
                </g>
                <text x="769.011px" y="516.005px" style="font-family:'Poppins-Regular', 'Poppins';font-size:9.293px;fill:rgb(233,233,233);">Contrast WCAG AAA</text>
            </g>
        </g>
    </g>
</svg>
